<svg viewBox='0 0 100 100' xmlns="http://www.w3.org/2000/svg">
  <rect width='100%' height='100%' fill='#ffffff' />
  <path d="M30 10 
    h 40 a 20 20 0 0 1 20 20
    v 40 a 20 20 0 0 1 -20 20
    h -40 a 20 20 0 0 1 -20 -20
    v -40 a 20 20 0 0 1 20 -20
    " fill="#7af" />
  <path d="M50 55
    h -34 0
    a 34 34 0 0 1 68 0
    " fill="#fff" />
  <path d="M50 55
    l-12 -32
    " stroke="#000" stroke-width="2" />
  <path d="M50 55
    h -18 0
    a 18 18 0 0 1 36 0
    " fill="#7af" />
  <path d="M50 55
    l 30 -30
    l 5 30
    " fill="#7af" />
  <path d="M50 55
    l -30 -30
    l -5 30
    " fill="#7af" />
</svg>
